<svg xmlns="http://www.w3.org/2000/svg" width="200" height="69" viewBox="0 0 200 69" fill="none">
    <g clip-path="url(#clip0_6_2)">
        <path
            d="M60.0879 52.0949V24.6283H67.5919C63.3843 10.3927 50.1607 0 34.4959 0C15.4445 0 0 15.3717 0 34.3333C0 53.2948 15.4445 68.6665 34.4959 68.6665C47.0165 68.6665 57.9791 62.0271 64.0232 52.0929H60.0879V52.0949Z"
            fill="#FFDD00" />
        <path
            d="M60.0879 24.6282H74.2408C77.7094 24.6282 80.1546 25.4913 81.7708 27.0998C82.8742 28.1981 83.5451 29.6492 83.5451 31.6125C83.5451 34.7917 81.7327 36.6733 79.2875 37.7337C82.6379 38.8319 84.7668 40.7155 84.7668 44.5226C84.7668 49.2306 80.9036 52.0948 74.3189 52.0948H60.0859V24.6282H60.0879ZM72.3482 35.575C74.6733 35.575 75.9751 34.7897 75.9751 33.1034C75.9751 31.6125 74.7915 30.7494 72.5065 30.7494H67.5399V35.575H72.3502H72.3482ZM73.4517 45.9737C75.7768 45.9737 77.1186 45.0707 77.1186 43.3845C77.1186 41.8935 75.935 40.9129 73.3736 40.9129H67.5378V45.9737H73.4517Z"
            fill="#E30613" />
        <path
            d="M88.2754 24.6282H100.103C107.08 24.6282 111.576 28.1981 111.576 34.3592C111.576 40.8331 106.57 44.2475 99.7106 44.2475H95.9256V52.0948H88.2774V24.6282H88.2754ZM99.5504 38.2838C102.27 38.2838 103.926 36.8706 103.926 34.6342C103.926 32.2802 102.27 31.0245 99.5103 31.0245H95.9236V38.2838H99.5504Z"
            fill="#E30613" />
        <path
            d="M113.859 38.3616C113.859 30.4744 120.246 24.0781 128.761 24.0781C137.277 24.0781 143.585 30.3946 143.585 38.3616C143.585 46.3285 137.198 52.645 128.683 52.645C120.168 52.645 113.859 46.3285 113.859 38.3616ZM135.779 38.3616C135.779 34.399 132.901 30.9448 128.683 30.9448C124.466 30.9448 121.706 34.3193 121.706 38.3616C121.706 42.4038 124.584 45.7783 128.763 45.7783C132.943 45.7783 135.781 42.4038 135.781 38.3616H135.779Z"
            fill="#E30613" />
        <path
            d="M147.566 24.6282H159.394C166.371 24.6282 170.867 28.1981 170.867 34.3592C170.867 40.8331 165.861 44.2475 159.002 44.2475H155.216V52.0948H147.568V24.6282H147.566ZM158.841 38.2838C161.561 38.2838 163.217 36.8706 163.217 34.6342C163.217 32.2802 161.561 31.0245 158.801 31.0245H155.214V38.2838H158.841Z"
            fill="#E30613" />
        <path
            d="M180.879 24.4309H188.25L199.998 52.0948H191.797L189.786 47.1895H179.142L177.172 52.0948H169.129L180.877 24.4309H180.879ZM187.582 41.2637L184.505 33.4562L181.391 41.2637H187.582Z"
            fill="#E30613" />
        <path
            d="M66.7288 67.3291C66.7288 67.1537 66.7408 66.9543 66.7648 66.7291C66.7888 66.5039 66.8129 66.3225 66.8389 66.187L66.879 65.9837L67.9304 59.7269C68.0285 59.1828 68.2608 58.7502 68.6273 58.4253C68.9938 58.1005 69.4844 57.937 70.0992 57.937C70.64 57.937 71.0906 58.0885 71.451 58.3915C71.8115 58.6944 72.1079 59.1389 72.3422 59.7269L73.688 63.2111H73.8422L75.188 59.7269C75.6466 58.533 76.3936 57.937 77.433 57.937C78.0478 57.937 78.5405 58.1005 78.913 58.4253C79.2855 58.7502 79.5158 59.1848 79.6039 59.7269L80.6573 65.9837C80.7554 66.484 80.8035 66.9324 80.8035 67.3291C80.8035 67.7795 80.6613 68.1403 80.3789 68.4094C80.0965 68.6785 79.714 68.814 79.2314 68.814C78.7487 68.814 78.3662 68.6805 78.0698 68.4134C77.7714 68.1463 77.5872 67.7855 77.5151 67.3291L76.8362 63.4503H76.69L75.5645 66.2806C75.3703 66.7809 75.1319 67.1537 74.8476 67.4008C74.5652 67.648 74.2067 67.7716 73.7741 67.7716C73.3416 67.7716 72.9731 67.648 72.6847 67.4008C72.3963 67.1537 72.162 66.7809 71.9757 66.2806L70.8502 63.4503H70.704L70.0291 67.3291C69.957 67.7855 69.7708 68.1463 69.4704 68.4134C69.17 68.6805 68.7815 68.814 68.3049 68.814C67.8282 68.814 67.4397 68.6805 67.1573 68.4094C66.875 68.1403 66.7328 67.7795 66.7328 67.3291H66.7288Z"
            fill="#1E1E1C" />
        <path
            d="M81.0999 59.5794C81.0999 59.1629 81.2541 58.8101 81.5645 58.521C81.8729 58.232 82.2674 58.0885 82.744 58.0885C83.1346 58.0885 83.469 58.2161 83.7534 58.4712C84.0358 58.7263 84.3001 59.0951 84.5424 59.5814L86.1866 62.7108H86.3408L87.6125 59.5814C88.0611 58.5868 88.6599 58.0905 89.4109 58.0905C89.8875 58.0905 90.2821 58.234 90.5905 58.523C90.9009 58.812 91.0551 59.1648 91.0551 59.5814C91.0551 59.8007 91.0231 60.0199 90.961 60.2432C90.8969 60.4664 90.8368 60.6358 90.7787 60.7515L90.6826 60.9189L88.2854 65.8362C88.0851 66.2627 87.8468 66.6574 87.5685 67.0181C87.2901 67.3789 86.9717 67.7098 86.6152 68.0068C86.2567 68.3058 85.8482 68.539 85.3916 68.7084C84.933 68.8778 84.4503 68.9635 83.9436 68.9635C83.1886 68.9635 82.5998 68.7921 82.1773 68.4513C81.7567 68.1084 81.5444 67.6839 81.5444 67.1736C81.5444 66.8049 81.6766 66.4899 81.939 66.2268C82.2013 65.9637 82.5217 65.8342 82.8962 65.8342C83.1205 65.8342 83.3328 65.884 83.5331 65.9837C83.7334 66.0833 83.8695 66.1332 83.9416 66.1332C84.0298 66.1332 84.1119 66.1092 84.186 66.0594C84.2621 66.0116 84.3141 65.9617 84.3442 65.9139L84.3962 65.8342L81.4724 60.9169C81.4423 60.873 81.4083 60.8112 81.3662 60.7315C81.3242 60.6518 81.2701 60.4943 81.202 60.2591C81.1339 60.0239 81.0999 59.7967 81.0999 59.5794Z"
            fill="#1E1E1C" />
        <path
            d="M90.3041 67.4746C90.3041 67.2752 90.3422 67.1038 90.4203 66.9583C90.4984 66.8128 90.5985 66.6912 90.7207 66.5916C90.8429 66.4919 90.977 66.3923 91.1272 66.2886C91.2754 66.1869 91.4236 66.0614 91.5738 65.9099C91.722 65.7604 91.8582 65.581 91.9804 65.3757C92.1025 65.1704 92.2027 64.8894 92.2808 64.5346C92.3589 64.1818 92.3969 63.7712 92.3969 63.3047V59.7249C92.3969 59.2745 92.5431 58.9117 92.8355 58.6406C93.1279 58.3695 93.5324 58.232 94.0491 58.232H99.3642C99.8809 58.232 100.283 58.3675 100.574 58.6366C100.864 58.9057 101.008 59.2685 101.008 59.7249V67.3271C101.008 67.7775 100.864 68.1383 100.574 68.4074C100.283 68.6765 99.8809 68.812 99.3642 68.812C98.8475 68.812 98.443 68.6785 98.1506 68.4074C97.8582 68.1383 97.712 67.7775 97.712 67.3271V61.2158H95.6933V63.3047C95.6933 64.0283 95.6212 64.7 95.475 65.3199C95.3288 65.9418 95.1306 66.47 94.8822 66.9105C94.6339 67.349 94.3415 67.7257 94.0091 68.0426C93.6746 68.3576 93.3222 68.5908 92.9497 68.7403C92.5772 68.8898 92.1926 68.9655 91.7981 68.9655C91.3495 68.9655 90.989 68.828 90.7167 68.5549C90.4443 68.2818 90.3081 67.9211 90.3081 67.4746H90.3041Z"
            fill="#1E1E1C" />
        <path
            d="M102.943 67.1756V59.5794C102.943 59.123 103.087 58.7602 103.378 58.4911C103.668 58.2221 104.07 58.0865 104.587 58.0865C105.104 58.0865 105.508 58.2221 105.801 58.4931C106.093 58.7642 106.239 59.127 106.239 59.5774V61.3594H107.585C108.316 61.3594 108.977 61.4551 109.57 61.6464C110.163 61.8378 110.651 62.1009 111.036 62.4317C111.42 62.7646 111.715 63.1513 111.921 63.5918C112.125 64.0323 112.227 64.5067 112.227 65.011C112.227 65.5153 112.125 65.9877 111.921 66.4301C111.717 66.8726 111.422 67.2593 111.036 67.5902C110.651 67.9231 110.163 68.1842 109.57 68.3755C108.977 68.5669 108.316 68.6626 107.585 68.6626H104.587C104.07 68.6626 103.668 68.529 103.378 68.2579C103.087 67.9888 102.943 67.6261 102.943 67.1696V67.1756ZM106.239 65.9817H107.585C107.946 65.9817 108.236 65.888 108.454 65.7006C108.675 65.5133 108.783 65.284 108.783 65.013C108.783 64.7419 108.673 64.5127 108.454 64.3253C108.236 64.1379 107.946 64.0443 107.585 64.0443H106.239V65.9797V65.9817Z"
            fill="#1E1E1C" />
        <path
            d="M112.055 60.8132C111.765 60.5441 111.62 60.1814 111.62 59.7249C111.62 59.2685 111.765 58.9057 112.055 58.6366C112.345 58.3675 112.748 58.232 113.265 58.232H119.851C120.368 58.232 120.773 58.3675 121.065 58.6406C121.357 58.9117 121.504 59.2725 121.504 59.7249C121.504 60.1774 121.357 60.5382 121.065 60.8092C120.773 61.0803 120.368 61.2158 119.851 61.2158H118.207V67.3271C118.207 67.7775 118.063 68.1383 117.773 68.4074C117.482 68.6765 117.08 68.812 116.563 68.812C116.046 68.812 115.644 68.6785 115.353 68.4074C115.063 68.1383 114.919 67.7775 114.919 67.3271V61.2158H113.267C112.75 61.2158 112.347 61.0823 112.057 60.8112L112.055 60.8132Z"
            fill="#1E1E1C" />
        <path
            d="M122.469 67.3291V59.5794C122.469 59.123 122.615 58.7602 122.903 58.4911C123.194 58.2221 123.596 58.0865 124.113 58.0865C124.63 58.0865 125.034 58.2221 125.327 58.4931C125.619 58.7642 125.765 59.127 125.765 59.5774V63.0038H125.911L128.455 59.5774C128.821 59.0492 129.156 58.6685 129.46 58.4353C129.765 58.2021 130.129 58.0865 130.554 58.0865C131.066 58.0865 131.467 58.224 131.759 58.4971C132.052 58.7702 132.198 59.131 132.198 59.5774V67.3271C132.198 67.7776 132.054 68.1383 131.763 68.4074C131.473 68.6765 131.07 68.812 130.554 68.812C130.037 68.812 129.634 68.6785 129.344 68.4074C129.054 68.1383 128.909 67.7776 128.909 67.3271V63.9007H128.755L126.212 67.3271C125.845 67.8513 125.511 68.23 125.207 68.4612C124.902 68.6944 124.538 68.8101 124.113 68.8101C123.596 68.8101 123.194 68.6745 122.903 68.4034C122.613 68.1324 122.469 67.7736 122.469 67.3271V67.3291Z"
            fill="#1E1E1C" />
        <path
            d="M133.47 67.3291C133.47 67.1537 133.482 66.9543 133.506 66.7291C133.53 66.5039 133.554 66.3225 133.578 66.187L133.618 65.9837L134.669 59.7269C134.767 59.1828 135 58.7502 135.366 58.4253C135.733 58.1005 136.225 57.937 136.838 57.937C137.379 57.937 137.829 58.0885 138.19 58.3915C138.55 58.6944 138.849 59.1389 139.081 59.7269L140.427 63.2111H140.581L141.927 59.7269C142.385 58.533 143.132 57.937 144.172 57.937C144.787 57.937 145.279 58.1005 145.652 58.4253C146.024 58.7502 146.255 59.1848 146.343 59.7269L147.396 65.9837C147.494 66.484 147.542 66.9324 147.542 67.3291C147.542 67.7795 147.4 68.1403 147.118 68.4094C146.835 68.6785 146.453 68.814 145.97 68.814C145.488 68.814 145.105 68.6805 144.807 68.4134C144.51 68.1463 144.324 67.7855 144.252 67.3291L143.573 63.4503H143.427L142.301 66.2806C142.107 66.7809 141.869 67.1537 141.584 67.4008C141.302 67.648 140.943 67.7716 140.511 67.7716C140.078 67.7716 139.71 67.648 139.421 67.4008C139.133 67.1537 138.897 66.7809 138.713 66.2806L137.587 63.4503H137.441L136.766 67.3291C136.694 67.7855 136.506 68.1463 136.207 68.4134C135.907 68.6805 135.518 68.814 135.042 68.814C134.565 68.814 134.176 68.6805 133.894 68.4094C133.612 68.1403 133.47 67.7795 133.47 67.3291Z"
            fill="#1E1E1C" />
        <path
            d="M147.843 67.3291C147.843 67.1975 147.873 67.0201 147.935 66.7949C147.995 66.5697 148.057 66.3783 148.121 66.2228L148.215 65.9837L150.612 59.7269C150.851 59.125 151.169 58.6765 151.566 58.3815C151.962 58.0865 152.517 57.937 153.23 57.937C153.943 57.937 154.506 58.0865 154.908 58.3835C155.311 58.6825 155.625 59.129 155.855 59.7269L158.246 65.9837C158.499 66.5856 158.627 67.0341 158.627 67.3291C158.627 67.7457 158.471 68.0985 158.158 68.3835C157.846 68.6705 157.451 68.812 156.975 68.812C156.196 68.812 155.599 68.3177 155.184 67.3291L154.804 66.4341H151.66L151.287 67.3291C150.873 68.3177 150.274 68.812 149.489 68.812C149.01 68.812 148.618 68.6685 148.307 68.3835C147.999 68.0965 147.843 67.7457 147.843 67.3291ZM152.331 63.7492H154.129L153.31 61.5148H153.156L152.329 63.7492H152.331Z"
            fill="#1E1E1C" />
        <path
            d="M159.59 67.3291V59.7269C159.59 59.2705 159.734 58.9077 160.025 58.6386C160.315 58.3695 160.718 58.234 161.234 58.234H164.232C164.963 58.234 165.624 58.3297 166.217 58.521C166.81 58.7124 167.299 58.9755 167.683 59.3064C168.068 59.6392 168.362 60.0259 168.568 60.4664C168.772 60.9089 168.875 61.3813 168.875 61.8856C168.875 62.3899 168.772 62.8623 168.568 63.3048C168.364 63.7473 168.07 64.134 167.683 64.4648C167.299 64.7977 166.81 65.0588 166.217 65.2501C165.624 65.4415 164.963 65.5372 164.232 65.5372H162.887V67.3271C162.887 67.7776 162.74 68.1383 162.448 68.4074C162.156 68.6765 161.751 68.812 161.234 68.812C160.718 68.812 160.315 68.6785 160.025 68.4074C159.734 68.1383 159.59 67.7776 159.59 67.3271V67.3291ZM162.887 62.8543H164.232C164.593 62.8543 164.883 62.7606 165.102 62.5733C165.322 62.3859 165.43 62.1587 165.43 61.8856C165.43 61.6125 165.32 61.3853 165.102 61.1979C164.883 61.0106 164.593 60.9189 164.232 60.9189H162.887V62.8543Z"
            fill="#1E1E1C" />
        <path
            d="M170.138 67.3291V59.5794C170.138 59.123 170.282 58.7602 170.573 58.4911C170.863 58.222 171.266 58.0865 171.782 58.0865C172.299 58.0865 172.704 58.222 172.996 58.4931C173.288 58.7642 173.435 59.127 173.435 59.5774V61.6584L176.725 58.529C176.759 58.4951 176.807 58.4532 176.871 58.4054C176.935 58.3576 177.072 58.2918 177.28 58.2081C177.49 58.1264 177.704 58.0845 177.923 58.0845C178.371 58.0845 178.734 58.222 179.008 58.4951C179.282 58.7682 179.421 59.129 179.421 59.5754C179.421 59.7947 179.371 60.002 179.27 60.2013C179.17 60.4006 179.072 60.5441 178.974 60.6298L178.82 60.7674L176.721 62.7766L179.264 65.9777C179.308 66.0355 179.363 66.1112 179.429 66.2029C179.495 66.2946 179.583 66.46 179.695 66.7012C179.807 66.9424 179.863 67.1477 179.863 67.3231C179.863 67.7736 179.717 68.1343 179.429 68.4034C179.138 68.6725 178.736 68.808 178.219 68.808C178.063 68.808 177.909 68.7821 177.754 68.7323C177.6 68.6805 177.47 68.6187 177.36 68.5469C177.25 68.4752 177.15 68.4014 177.059 68.3297C176.969 68.2579 176.901 68.1941 176.859 68.1403L176.793 68.0686L174.25 64.8674L173.431 65.6089V67.3251C173.431 67.7756 173.284 68.1363 172.992 68.4054C172.7 68.6745 172.295 68.81 171.778 68.81C171.262 68.81 170.859 68.6765 170.569 68.4054C170.278 68.1363 170.134 67.7756 170.134 67.3251L170.138 67.3291Z"
            fill="#1E1E1C" />
        <path
            d="M180.841 67.1756V59.7249C180.841 59.2685 180.987 58.9057 181.275 58.6366C181.565 58.3675 181.968 58.232 182.485 58.232H188.18C188.697 58.232 189.099 58.3675 189.39 58.6366C189.68 58.9057 189.824 59.2685 189.824 59.7249C189.824 60.1814 189.678 60.5441 189.39 60.8132C189.099 61.0823 188.697 61.2178 188.18 61.2178H184.137V62.1128H186.981C187.423 62.1128 187.784 62.2424 188.062 62.4975C188.34 62.7546 188.479 63.0715 188.479 63.4503C188.479 63.829 188.34 64.1479 188.062 64.407C187.784 64.6661 187.423 64.7957 186.981 64.7957H184.137V65.6827H188.326C188.843 65.6827 189.246 65.8162 189.536 66.0873C189.826 66.3564 189.971 66.7191 189.971 67.1756C189.971 67.632 189.826 67.9928 189.536 68.2639C189.246 68.533 188.843 68.6685 188.326 68.6685H182.485C181.968 68.6685 181.565 68.535 181.275 68.2639C180.985 67.9948 180.841 67.632 180.841 67.1756Z"
            fill="#1E1E1C" />
        <path
            d="M190.551 60.8132C190.261 60.5441 190.117 60.1814 190.117 59.7249C190.117 59.2685 190.261 58.9057 190.551 58.6366C190.842 58.3675 191.244 58.232 191.761 58.232H198.348C198.865 58.232 199.269 58.3675 199.561 58.6406C199.854 58.9117 200 59.2725 200 59.7249C200 60.1774 199.854 60.5382 199.561 60.8092C199.269 61.0803 198.865 61.2158 198.348 61.2158H196.704V67.3271C196.704 67.7775 196.559 68.1383 196.269 68.4074C195.979 68.6765 195.576 68.812 195.059 68.812C194.543 68.812 194.14 68.6785 193.85 68.4074C193.559 68.1383 193.415 67.7775 193.415 67.3271V61.2158H191.763C191.246 61.2158 190.844 61.0823 190.553 60.8112L190.551 60.8132Z"
            fill="#1E1E1C" />
        <path
            d="M29.2809 12.9619H39.7088L56.3289 52.0949H44.7295L41.8857 45.1565H26.8277L24.04 52.0949H12.6628L29.2809 12.9619ZM38.7616 36.775L34.4118 25.7285L30.0059 36.775H38.7616Z"
            fill="#E30613" />
    </g>
    <defs>
        <clipPath id="clip0_6_2">
            <rect width="200" height="68.9655" fill="white" />
        </clipPath>
    </defs>
</svg>